<svg width="12" height="20" viewBox="0 0 12 20" fill="none" xmlns="http://www.w3.org/2000/svg">
<path fill-rule="evenodd" clip-rule="evenodd" d="M11.4512 10.6675C11.1898 10.1222 10.4661 9.66846 9.50422 10.4558C8.20421 11.5202 6.11601 11.5202 6.11601 11.5202C6.11601 11.5202 4.02775 11.5202 2.72775 10.4558C1.7659 9.66846 1.04215 10.1222 0.780859 10.6675C0.32526 11.6184 0.839982 12.078 2.00152 12.8527C2.99361 13.5144 4.35682 13.7616 5.2371 13.854L4.50234 14.6174C3.46721 15.6928 2.46813 16.7309 1.77493 17.4512C1.36045 17.8817 1.36045 18.5799 1.77493 19.0106L1.89997 19.1405C2.10672 19.3553 2.37747 19.4629 2.64846 19.4634H2.65236C2.9233 19.4629 3.19417 19.3552 3.40085 19.1405L6.12826 16.3068C7.16333 17.3821 8.16241 18.4202 8.85567 19.1404C9.27008 19.571 9.94207 19.571 10.3565 19.1404L10.4815 19.0105C10.8961 18.5798 10.8959 17.8817 10.4815 17.4512L7.75412 14.6174L7.01701 13.8516C7.89803 13.7574 9.24664 13.5089 10.2304 12.8527C11.3919 12.078 11.9066 11.6184 11.4512 10.6675ZM6.11595 2.90629C7.37354 2.90629 8.39302 3.96558 8.39302 5.27211C8.39302 6.5787 7.37354 7.63785 6.11595 7.63785C4.85837 7.63785 3.83888 6.5787 3.83888 5.27211C3.83895 3.96551 4.85837 2.90629 6.11595 2.90629ZM6.11595 10.0808C8.67212 10.0808 10.7444 7.92783 10.7444 5.27204C10.7444 2.61638 8.67212 0.463379 6.11595 0.463379C3.55979 0.463379 1.4876 2.61638 1.4876 5.27204C1.4876 7.92783 3.55972 10.0808 6.11595 10.0808Z" fill="#858585"/>
</svg>
