<svg width="15" height="14" viewBox="0 0 15 14" fill="none" xmlns="http://www.w3.org/2000/svg">
<path fill-rule="evenodd" clip-rule="evenodd" d="M12.6532 11.6568C12.4508 11.9652 12.0201 12.374 11.6045 12.5684C11.1888 12.7629 10.7881 12.7429 10.4226 12.6789C10.0572 12.6149 9.72691 12.5067 8.86331 11.9513C7.99967 11.3959 6.60259 10.3932 5.4075 9.09946C4.21239 7.80563 3.21926 6.22076 2.63667 5.22656C2.05408 4.23242 1.88194 3.82894 1.83214 3.42156C1.78234 3.01413 1.85481 2.60279 2.12973 2.1851C2.40466 1.7674 2.88186 1.34336 3.32388 1.24343C3.7659 1.14349 4.17264 1.36767 4.54049 1.67475C4.90834 1.98188 5.23735 2.3719 5.44489 2.7637C5.65242 3.1555 5.73849 3.54905 5.63318 3.84079C5.52791 4.13249 5.23121 4.32242 5.0322 4.44187C4.83318 4.56133 4.73184 4.61045 4.66078 4.66594C4.58975 4.72143 4.54904 4.78334 4.58024 4.91752C4.61149 5.05165 4.71469 5.25806 4.99108 5.78539C5.26752 6.31268 5.7172 7.1609 6.34691 7.90085C6.97666 8.6408 7.78644 9.27247 8.27027 9.55788C8.7541 9.84333 8.912 9.78257 9.07942 9.585C9.24688 9.38748 9.42389 9.05311 9.63253 8.88481C9.84118 8.71651 10.0814 8.71422 10.3111 8.76064C10.5408 8.80701 10.76 8.90204 11.0195 9.05903C11.2791 9.21606 11.5789 9.43499 11.8599 9.69631C12.1409 9.95763 12.4029 10.2613 12.5572 10.4744C12.7114 10.6875 12.7578 10.81 12.7939 10.9753C12.8299 11.1406 12.8556 11.3485 12.6532 11.6568Z" fill="#3D2E29"/>
</svg>
