<svg width="18" height="15" viewBox="0 0 18 15" fill="none" xmlns="http://www.w3.org/2000/svg">
<path d="M17.4092 2.62066C16.7837 2.90176 16.1115 3.09176 15.406 3.17721C16.126 2.73977 16.6791 2.04716 16.9395 1.2218C16.2655 1.62688 15.5191 1.92097 14.7246 2.07945C14.0885 1.39256 13.1821 0.963379 12.1789 0.963379C10.2528 0.963379 8.69116 2.54581 8.69116 4.49764C8.69116 4.77464 8.722 5.04444 8.78145 5.30312C5.88277 5.15568 3.31279 3.74863 1.59263 1.61024C1.29234 2.13222 1.12037 2.73938 1.12037 3.38709C1.12037 4.6133 1.73607 5.69507 2.67201 6.32887C2.10023 6.31048 1.56249 6.15148 1.09228 5.88682C1.09196 5.90157 1.09196 5.91632 1.09196 5.93127C1.09196 7.64372 2.29426 9.07201 3.88977 9.39691C3.59711 9.47768 3.289 9.52089 2.97089 9.52089C2.74614 9.52089 2.52767 9.49866 2.31466 9.45747C2.75851 10.8615 4.04655 11.8834 5.5728 11.9118C4.37916 12.8598 2.87528 13.4249 1.24117 13.4249C0.959675 13.4249 0.682087 13.408 0.40918 13.3754C1.95268 14.3782 3.78602 14.9634 5.75568 14.9634C12.1709 14.9634 15.6791 9.57787 15.6791 4.90739C15.6791 4.75417 15.6757 4.60173 15.669 4.45014C16.3503 3.95188 16.9416 3.32939 17.4092 2.62066Z" fill="#858585"/>
</svg>
