<svg width="11" height="14" viewBox="0 0 11 14" fill="none" xmlns="http://www.w3.org/2000/svg">
<path fill-rule="evenodd" clip-rule="evenodd" d="M1.01965 0.463379H6.69977C8.56878 0.463379 10.1599 1.41497 10.1582 3.33936C10.1567 4.94615 9.59697 5.57115 8.44693 6.2779C8.54526 6.36211 9.20426 6.56643 9.42553 6.67977C9.77989 6.86131 9.98835 7.04477 10.2215 7.2911C10.874 7.98059 10.9956 8.61093 10.9956 9.69246C10.9956 12.2018 8.66036 13.4634 6.41149 13.4634H0.995605L1.01965 0.463379ZM4.10623 3.87877L4.10583 5.56696C5.56888 5.56696 6.94364 5.76726 6.94364 4.11851C6.94364 2.59209 5.38838 2.84357 4.10479 2.84357L4.10623 3.87877ZM4.10537 11.0704C5.70843 11.0704 7.68897 11.3449 7.7238 9.45319C7.76013 7.47996 5.68928 7.83609 4.10629 7.83609L4.10537 11.0704Z" fill="#858585"/>
</svg>
